<?xml version="1.0" encoding="utf-8"?>
<!-- Generator: Adobe Illustrator 23.0.3, SVG Export Plug-In . SVG Version: 6.00 Build 0)  -->
<svg version="1.1" id="Layer_1" xmlns="http://www.w3.org/2000/svg" xmlns:xlink="http://www.w3.org/1999/xlink" x="0px" y="0px"
	 viewBox="0 0 938.6 141.7" style="enable-background:new 0 0 938.6 141.7;" xml:space="preserve">
<style type="text/css">
	.st0{fill:#FFFFFF;}
</style>
<path class="st0" d="M70.2,134.8c-35.3,0-64-28.7-64-64s28.7-64,64-64c5.9,0,11.8,0.8,17.5,2.4c3.2,0.9,5,4.2,4.1,7.4
	c-0.9,3.2-4.2,5-7.4,4.1c-4.6-1.3-9.4-2-14.2-2c-28.7,0-52,23.3-52,52s23.3,52,52,52s52-23.3,52-52c0-6.8-1.3-13.4-3.9-19.7
	c-1.3-3.1,0.2-6.6,3.3-7.8c3.1-1.3,6.6,0.2,7.8,3.3c3.2,7.7,4.8,15.9,4.8,24.2C134.2,106.1,105.5,134.8,70.2,134.8z M120.6,7.7
	L120.6,7.7c-1.4-0.9-3.1-1.1-4.6-0.7c-1.6,0.4-2.9,1.4-3.7,2.8L70,79.1l-15.3-25c-1.7-2.8-5.4-3.8-8.3-2.1c-1.4,0.8-2.4,2.2-2.8,3.8
	c-0.4,1.6-0.2,3.2,0.7,4.7l25.8,42.4l52.7-86.7C124.4,13.2,123.4,9.4,120.6,7.7z M171.3,40c-0.9-2.7,0.3-4.5,3.2-4.5h4.8
	c2.2,0,3.7,1,4.4,3.3l13.6,40c1.2,3.8,2.5,9.7,2.5,9.7h0.2c0,0,1.2-5.9,2.5-9.7l13.7-40c0.6-2.2,2.1-3.3,4.3-3.3h4.6
	c2.9,0,4.1,1.8,3.2,4.5l-21.1,58.5c-0.7,2.1-2.1,3.1-4.4,3.1h-6c-2.2,0-3.6-0.9-4.4-3.1L171.3,40z M250.9,53.1
	c13.4,0,20.9,9.5,20.9,22.5c0,2-1.8,4-4.1,4h-28.8c0.7,8.5,7,13,14.2,13c4.4,0,8-1.7,10.2-3.1c2.3-1.1,4-0.8,5.2,1.3l1.1,1.9
	c1.1,2.1,0.7,4-1.3,5.2c-3.1,1.9-8.6,4.7-16,4.7c-15.6,0-25.4-11.3-25.4-24.7C226.9,63.3,236.7,53.1,250.9,53.1z M260.2,72.6
	c-0.2-6.6-4.2-10.5-9.5-10.5c-6,0-10.3,4.2-11.4,10.5H260.2z M277.3,92.9l1.1-1.7c1.4-1.9,3-2.1,5.3-0.9c2.2,1.2,5.7,3.2,10.6,3.2
	c4.1,0,6.6-1.9,6.6-4.8c0-7.7-23.4-4.8-23.4-21c0-9.3,8.1-14.2,18.1-14.2c6.3,0,10.6,2,13.1,3.4c2.1,1.1,2.4,3.1,1.4,5.2l-0.9,1.7
	c-1.1,2.2-2.9,2.5-5.2,1.5c-2-0.9-5.1-2.3-9-2.3c-4.1,0-6.4,1.7-6.4,4.6c0,7.8,23.4,4.7,23.4,20.8c0,8.3-7,14.5-18,14.5
	c-7.6,0-12.9-2.9-15.7-4.8C276.1,97,275.9,94.9,277.3,92.9z M321.9,64.6h-2.3c-2.4,0-3.7-1.2-3.7-3.7v-1.5c0-2.4,1.2-3.7,3.7-3.7
	h2.3V45.6c0-2.1,1.7-3.9,3.9-3.9h3.2c2.1,0,3.9,1.7,3.9,3.9v10h7.1c2.1,0,3.9,1.7,3.9,3.9v1.4c0,2.5-1.4,3.7-3.9,3.7h-6.1v18.3
	c0,7,4.2,8.4,7.3,8.8c2.8,0.3,3.7,1.2,3.7,3.8v2.9c0,2.8-1.6,3.9-4.8,3.9c-8.3,0-18.2-4.5-18.2-17.3V64.6z M349.9,58.5
	c0-2.1,1.7-3.9,3.9-3.9h4.2c2.6,0,3.9,1.4,3.9,3.9v44.3c0,15.3-13.4,17.9-18,17.9h-1.4c-2.4,0-3.6-1.3-3.6-3.9v-2.4
	c0-2.9,1.8-3.5,3.6-3.8c3.1-0.4,7.4-1.4,7.4-8.6V58.5z M350.9,42.8v-2.3c0-2.1,1.7-3.9,3.9-3.9h4.3c2.1,0,3.8,1.7,3.8,3.8v2.4
	c0,2.1-1.7,3.8-3.8,3.8h-4.4C352.6,46.6,350.9,44.9,350.9,42.8z M372.9,111.4c0.8,0.4,2,0.8,3.4,0.8c3.5,0,6.2-3,7.6-6.4l1.8-4.2
	l-18.2-42.5c-1.2-2.7,0-4.6,3-4.6h5.1c2.3,0,3.7,1,4.4,3.2l9,24.4c0.8,2.5,1.8,6.5,1.8,6.5h0.2c0,0,0.8-3.7,1.6-6.3l8.4-24.5
	c0.7-2.2,2.1-3.3,4.4-3.3h4.7c2.9,0,4.1,1.8,3.2,4.5l-19.7,50.4c-3.3,8.7-10.2,12.6-17.2,12.6c-2.6,0-5-0.7-6.7-1.4
	c-2.2-0.8-2.8-2.9-1.8-5.1l0.8-2.1C369.7,111.4,371.3,111,372.9,111.4z M416.4,92.9l1.1-1.7c1.4-1.9,3-2.1,5.3-0.9
	c2.2,1.2,5.7,3.2,10.6,3.2c4.1,0,6.6-1.9,6.6-4.8c0-7.7-23.4-4.8-23.4-21c0-9.3,8.1-14.2,18.1-14.2c6.3,0,10.6,2,13.1,3.4
	c2.1,1.1,2.4,3.1,1.4,5.2l-0.9,1.7c-1.1,2.2-2.9,2.5-5.2,1.5c-2-0.9-5.1-2.3-9-2.3c-4.1,0-6.4,1.7-6.4,4.6c0,7.8,23.4,4.7,23.4,20.8
	c0,8.3-7,14.5-18,14.5c-7.6,0-12.9-2.9-15.7-4.8C415.2,97,415,94.9,416.4,92.9z M459,39.5c0-2.1,1.7-3.9,3.9-3.9h4.1
	c2.6,0,4,1.4,4,3.9v32.1h5.7l9.6-14.4c1.1-1.9,2.4-2.6,4.5-2.6h4.3c3.1,0,4.1,2.2,2.4,4.7L486,76.1v-0.9l13.6,21.7
	c1.5,2.7,0.5,4.7-2.5,4.7h-4.9c-2.1,0-3.4-0.8-4.4-2.7L477,80.6h-6v17.1c0,2.1-1.7,3.9-3.9,3.9H463c-2.6,0-4-1.3-4-3.9V39.5z
	 M529.1,39.3c0.3-2.4,1.6-3.7,4-3.7h5.4c2.3,0,3.7,1,4.4,3.2l12,30c1.5,4,3.4,9.8,3.4,9.8h0.2c0,0,1.8-5.9,3.3-9.8l12-30
	c0.8-2.2,2.2-3.2,4.5-3.2h5.3c2.4,0,3.8,1.3,4,3.7l4.7,58.3c0.2,2.5-1.1,4-3.7,4h-4.2c-2.4,0-3.8-1.3-4-3.7l-2.5-33.1
	c-0.3-4.4-0.1-10.2-0.1-10.2h-0.1c0,0-2.1,6.5-3.6,10.3l-9.6,22.6c-0.7,2.1-2.2,3.1-4.4,3.1h-3.7c-2.3,0-3.7-1-4.5-3.1l-9.5-22.6
	c-1.5-3.8-3.6-10.4-3.6-10.4h-0.1c0,0,0.2,5.9-0.1,10.3l-2.5,33c-0.2,2.4-1.5,3.7-4,3.7h-4.2c-2.6,0-3.9-1.5-3.7-4L529.1,39.3z
	 M627.1,72.6h2v-1.1c0-6.1-4.1-8.2-9-8.2c-4.1,0-7.8,1.5-10,2.6c-2.4,1-4.2,0.6-5.3-1.5l-0.9-1.7c-1.1-2.1-0.8-3.9,1.5-5.1
	c3.1-1.5,8.6-3.8,15.8-3.8c12.5,0,19.9,6.7,19.9,18.5v25.5c0,2.1-1.7,3.9-3.9,3.9h-3.3c-2.5,0-3.9-1.3-3.9-4v-1.9
	c0-1.3,0.2-2.1,0.2-2.1H630c0,0-6,11.5-20.2,8.1c-6.3-1.5-11-7.1-10.9-13.6C599.2,74.8,616.4,72.6,627.1,72.6z M618.2,93.8
	c6.6,0,10.8-6.7,10.8-12.4v-1.8h-1.9c-5.9,0-16,0.9-16,8C611.1,90.7,613.5,93.8,618.2,93.8z M651.1,58.5c0-2.5,1.3-3.9,3.9-3.9h3.2
	c2.1,0,3.9,1.7,3.9,3.9v4.8c0,1.8-0.3,3.4-0.3,3.4h0.8c1.7-5.4,6.4-11.5,12.4-11.9c2.2-0.2,4,1.6,4,3.8v3.7c0,2.2-1.8,3.9-3.9,3.9
	c-8.2,0.1-12.1,8.6-12.1,17.1v14.6c0,2.6-1.3,3.9-3.9,3.9H655c-2.6,0-3.9-1.3-3.9-3.9V58.5z M684.1,39.5c0-2.1,1.7-3.9,3.9-3.9h4.1
	c2.6,0,4,1.4,4,3.9v32.1h5.7l9.6-14.4c1.1-1.9,2.4-2.6,4.5-2.6h4.3c3.1,0,4.1,2.2,2.4,4.7l-11.5,16.8v-0.9l13.6,21.7
	c1.5,2.7,0.5,4.7-2.5,4.7h-4.9c-2.1,0-3.4-0.8-4.4-2.7l-10.8-18.3h-6v17.1c0,2.1-1.7,3.9-3.9,3.9h-4.1c-2.6,0-4-1.3-4-3.9V39.5z
	 M751.8,53.1c13.4,0,20.9,9.5,20.9,22.5c0,2-1.8,4-4.1,4h-28.8c0.7,8.5,7,13,14.2,13c4.4,0,8-1.7,10.2-3.1c2.3-1.1,4-0.8,5.2,1.3
	l1.1,1.9c1.1,2.1,0.7,4-1.3,5.2c-3.1,1.9-8.6,4.7-16,4.7c-15.6,0-25.4-11.3-25.4-24.7C727.8,63.3,737.7,53.1,751.8,53.1z
	 M761.1,72.6c-0.2-6.6-4.2-10.5-9.5-10.5c-6,0-10.3,4.2-11.4,10.5H761.1z M782.1,64.6h-3.3c-2.4,0-3.7-1.2-3.7-3.7v-1.5
	c0-2.4,1.2-3.7,3.7-3.7h3.3V45.6c0-2.1,1.7-3.9,3.9-3.9h3.2c2.1,0,3.9,1.7,3.9,3.9v10h7.1c2.1,0,3.9,1.7,3.9,3.9v1.4
	c0,2.5-1.4,3.7-3.9,3.7h-6.1v18.3c0,7,4.2,8.4,7.3,8.8c2.8,0.3,3.7,1.2,3.7,3.8v2.9c0,2.8-1.6,3.9-4.8,3.9
	c-8.3,0-18.2-4.5-18.2-17.3L782.1,64.6L782.1,64.6z M811.2,42.8v-2.4c0-2.1,1.7-3.8,3.8-3.8h4.3c2.1,0,3.9,1.7,3.9,3.9v2.3
	c0,2.1-1.7,3.8-3.8,3.8H815C812.9,46.6,811.2,44.9,811.2,42.8z M811.2,58.5c0-2.5,1.3-3.9,3.9-3.9h4.2c2.6,0,3.9,1.4,3.9,3.9v39.3
	c0,2.6-1.3,3.9-3.9,3.9h-4.2c-2.6,0-3.9-1.3-3.9-3.9V58.5z M833.2,58.5c0-2.1,1.7-3.9,3.9-3.9h3.3c2.1,0,3.8,1.7,3.8,3.8v3.1
	c0,1-0.2,2.1-0.2,2.1h0.2c2.1-3.9,7.4-9.9,17.1-9.9c10.7,0,16.9,5.4,16.9,17.8v26.2c0,2.1-1.7,3.9-3.9,3.9h-4.2
	c-2.5,0-3.9-1.3-3.9-3.9V73.6c0-5.7-1.5-9.6-7.4-9.6c-8.3,0-13.6,6.9-13.6,15.5v18.2c0,2.6-1.3,3.9-3.8,3.9h-4.5
	c-2.5,0-3.7-1.3-3.7-3.9L833.2,58.5L833.2,58.5z M896.9,109.2c2.3,0.8,5.3,1.8,9.7,1.8c7.4,0,13.6-3,13.6-11.4v-3.5
	c0-1.1,0.2-2.4,0.2-2.4h-0.2c-2.6,4.4-6.8,7-13.2,7c-14.1,0-21.8-10.9-21.8-23.9c0-12.8,7.4-23.3,21.7-23.3
	c11.2,0,14.3,7.2,14.3,7.2h0.2c0,0-0.1-0.5-0.1-1.2v-1.7c0-1.7,1.3-3.1,3.9-3.1h3.3c2.1,0,3.8,1.7,3.8,3.8v40.3
	c0,16.1-13,22.2-25,22.2c-5.4,0-10.8-1.1-14.1-2.5c-2.5-1-3.1-2.6-2.1-5l0.8-2.1C892.9,109,894.3,108.4,896.9,109.2z M920.2,77.2
	c0-10.8-5.4-13.7-11.5-13.7c-7.3,0-11.3,5.2-11.3,13c0,8.5,4.3,14.5,11.9,14.5C914.8,91,920.2,87.8,920.2,77.2z"/>
</svg>
